<?xml version="1.0" encoding="UTF-8" standalone="no"?><svg xmlns="http://www.w3.org/2000/svg" xmlns:xlink="http://www.w3.org/1999/xlink" contentStyleType="text/css" height="278px" preserveAspectRatio="none" style="width:1017px;height:278px;background:#FFFFFF;" version="1.1" viewBox="0 0 1017 278" width="1017px" zoomAndPan="magnify"><defs/><g><!--MD5=[a1870843d4c15555cb0eda8034ae52ef]
class Dictionary--><g id="elem_Dictionary"><rect codeLine="1" fill="#F1F1F1" height="48" id="Dictionary" rx="2.5" ry="2.5" style="stroke:#181818;stroke-width:0.5;" width="106" x="456.5" y="7"/><ellipse cx="471.5" cy="23" fill="#ADD1B2" rx="11" ry="11" style="stroke:#181818;stroke-width:1.0;"/><path d="M473.8438,18.6719 C472.9063,18.2344 472.3125,18.0938 471.4375,18.0938 C468.8125,18.0938 466.8125,20.1719 466.8125,22.8906 L466.8125,24.0156 C466.8125,26.5938 468.9219,28.4844 471.8125,28.4844 C473.0313,28.4844 474.1875,28.1875 474.9375,27.6406 C475.5156,27.2344 475.8438,26.7813 475.8438,26.3906 C475.8438,25.9375 475.4531,25.5469 474.9844,25.5469 C474.7656,25.5469 474.5625,25.625 474.375,25.8125 C473.9219,26.2969 473.9219,26.2969 473.7344,26.3906 C473.3125,26.6563 472.625,26.7813 471.8594,26.7813 C469.8125,26.7813 468.5156,25.6875 468.5156,23.9844 L468.5156,22.8906 C468.5156,21.1094 469.7656,19.7969 471.5,19.7969 C472.0781,19.7969 472.6875,19.9531 473.1563,20.2031 C473.6406,20.4844 473.8125,20.7031 473.9063,21.1094 C473.9688,21.5156 474,21.6406 474.1406,21.7656 C474.2813,21.9063 474.5156,22.0156 474.7344,22.0156 C475,22.0156 475.2656,21.875 475.4375,21.6563 C475.5469,21.5 475.5781,21.3125 475.5781,20.8906 L475.5781,19.4688 C475.5781,19.0313 475.5625,18.9063 475.4688,18.75 C475.3125,18.4844 475.0313,18.3438 474.7344,18.3438 C474.4375,18.3438 474.2344,18.4375 474.0156,18.75 L473.8438,18.6719 Z " fill="#000000"/><text fill="#000000" font-family="sans-serif" font-size="14" lengthAdjust="spacing" textLength="74" x="485.5" y="27.8467">Dictionary</text><line style="stroke:#181818;stroke-width:0.5;" x1="457.5" x2="561.5" y1="39" y2="39"/><line style="stroke:#181818;stroke-width:0.5;" x1="457.5" x2="561.5" y1="47" y2="47"/></g><!--MD5=[d22815ff63be9cac9a63f8d1ea27d033]
class Article--><g id="elem_Article"><rect codeLine="2" fill="#F1F1F1" height="48" id="Article" rx="2.5" ry="2.5" style="stroke:#181818;stroke-width:0.5;" width="80" x="469.5" y="115"/><ellipse cx="484.5" cy="131" fill="#ADD1B2" rx="11" ry="11" style="stroke:#181818;stroke-width:1.0;"/><path d="M486.8438,126.6719 C485.9063,126.2344 485.3125,126.0938 484.4375,126.0938 C481.8125,126.0938 479.8125,128.1719 479.8125,130.8906 L479.8125,132.0156 C479.8125,134.5938 481.9219,136.4844 484.8125,136.4844 C486.0313,136.4844 487.1875,136.1875 487.9375,135.6406 C488.5156,135.2344 488.8438,134.7813 488.8438,134.3906 C488.8438,133.9375 488.4531,133.5469 487.9844,133.5469 C487.7656,133.5469 487.5625,133.625 487.375,133.8125 C486.9219,134.2969 486.9219,134.2969 486.7344,134.3906 C486.3125,134.6563 485.625,134.7813 484.8594,134.7813 C482.8125,134.7813 481.5156,133.6875 481.5156,131.9844 L481.5156,130.8906 C481.5156,129.1094 482.7656,127.7969 484.5,127.7969 C485.0781,127.7969 485.6875,127.9531 486.1563,128.2031 C486.6406,128.4844 486.8125,128.7031 486.9063,129.1094 C486.9688,129.5156 487,129.6406 487.1406,129.7656 C487.2813,129.9063 487.5156,130.0156 487.7344,130.0156 C488,130.0156 488.2656,129.875 488.4375,129.6563 C488.5469,129.5 488.5781,129.3125 488.5781,128.8906 L488.5781,127.4688 C488.5781,127.0313 488.5625,126.9063 488.4688,126.75 C488.3125,126.4844 488.0313,126.3438 487.7344,126.3438 C487.4375,126.3438 487.2344,126.4375 487.0156,126.75 L486.8438,126.6719 Z " fill="#000000"/><text fill="#000000" font-family="sans-serif" font-size="14" lengthAdjust="spacing" textLength="48" x="498.5" y="135.8467">Article</text><line style="stroke:#181818;stroke-width:0.5;" x1="470.5" x2="548.5" y1="147" y2="147"/><line style="stroke:#181818;stroke-width:0.5;" x1="470.5" x2="548.5" y1="155" y2="155"/></g><!--MD5=[96293e8b231702a792e4ba32419ac2da]
class Entry--><g id="elem_Entry"><rect codeLine="3" fill="#F1F1F1" height="48" id="Entry" rx="2.5" ry="2.5" style="stroke:#181818;stroke-width:0.5;" width="71" x="7" y="223"/><ellipse cx="22" cy="239" fill="#ADD1B2" rx="11" ry="11" style="stroke:#181818;stroke-width:1.0;"/><path d="M24.3438,234.6719 C23.4063,234.2344 22.8125,234.0938 21.9375,234.0938 C19.3125,234.0938 17.3125,236.1719 17.3125,238.8906 L17.3125,240.0156 C17.3125,242.5938 19.4219,244.4844 22.3125,244.4844 C23.5313,244.4844 24.6875,244.1875 25.4375,243.6406 C26.0156,243.2344 26.3438,242.7813 26.3438,242.3906 C26.3438,241.9375 25.9531,241.5469 25.4844,241.5469 C25.2656,241.5469 25.0625,241.625 24.875,241.8125 C24.4219,242.2969 24.4219,242.2969 24.2344,242.3906 C23.8125,242.6563 23.125,242.7813 22.3594,242.7813 C20.3125,242.7813 19.0156,241.6875 19.0156,239.9844 L19.0156,238.8906 C19.0156,237.1094 20.2656,235.7969 22,235.7969 C22.5781,235.7969 23.1875,235.9531 23.6563,236.2031 C24.1406,236.4844 24.3125,236.7031 24.4063,237.1094 C24.4688,237.5156 24.5,237.6406 24.6406,237.7656 C24.7813,237.9063 25.0156,238.0156 25.2344,238.0156 C25.5,238.0156 25.7656,237.875 25.9375,237.6563 C26.0469,237.5 26.0781,237.3125 26.0781,236.8906 L26.0781,235.4688 C26.0781,235.0313 26.0625,234.9063 25.9688,234.75 C25.8125,234.4844 25.5313,234.3438 25.2344,234.3438 C24.9375,234.3438 24.7344,234.4375 24.5156,234.75 L24.3438,234.6719 Z " fill="#000000"/><text fill="#000000" font-family="sans-serif" font-size="14" lengthAdjust="spacing" textLength="39" x="36" y="243.8467">Entry</text><line style="stroke:#181818;stroke-width:0.5;" x1="8" x2="77" y1="255" y2="255"/><line style="stroke:#181818;stroke-width:0.5;" x1="8" x2="77" y1="263" y2="263"/></g><!--MD5=[af4c46e78bdd98e76be6cb4044b68395]
class MorpholicalData--><g id="elem_MorpholicalData"><rect codeLine="4" fill="#F1F1F1" height="48" id="MorpholicalData" rx="2.5" ry="2.5" style="stroke:#181818;stroke-width:0.5;" width="149" x="113" y="223"/><ellipse cx="128" cy="239" fill="#ADD1B2" rx="11" ry="11" style="stroke:#181818;stroke-width:1.0;"/><path d="M130.3438,234.6719 C129.4063,234.2344 128.8125,234.0938 127.9375,234.0938 C125.3125,234.0938 123.3125,236.1719 123.3125,238.8906 L123.3125,240.0156 C123.3125,242.5938 125.4219,244.4844 128.3125,244.4844 C129.5313,244.4844 130.6875,244.1875 131.4375,243.6406 C132.0156,243.2344 132.3438,242.7813 132.3438,242.3906 C132.3438,241.9375 131.9531,241.5469 131.4844,241.5469 C131.2656,241.5469 131.0625,241.625 130.875,241.8125 C130.4219,242.2969 130.4219,242.2969 130.2344,242.3906 C129.8125,242.6563 129.125,242.7813 128.3594,242.7813 C126.3125,242.7813 125.0156,241.6875 125.0156,239.9844 L125.0156,238.8906 C125.0156,237.1094 126.2656,235.7969 128,235.7969 C128.5781,235.7969 129.1875,235.9531 129.6563,236.2031 C130.1406,236.4844 130.3125,236.7031 130.4063,237.1094 C130.4688,237.5156 130.5,237.6406 130.6406,237.7656 C130.7813,237.9063 131.0156,238.0156 131.2344,238.0156 C131.5,238.0156 131.7656,237.875 131.9375,237.6563 C132.0469,237.5 132.0781,237.3125 132.0781,236.8906 L132.0781,235.4688 C132.0781,235.0313 132.0625,234.9063 131.9688,234.75 C131.8125,234.4844 131.5313,234.3438 131.2344,234.3438 C130.9375,234.3438 130.7344,234.4375 130.5156,234.75 L130.3438,234.6719 Z " fill="#000000"/><text fill="#000000" font-family="sans-serif" font-size="14" lengthAdjust="spacing" textLength="117" x="142" y="243.8467">MorpholicalData</text><line style="stroke:#181818;stroke-width:0.5;" x1="114" x2="261" y1="255" y2="255"/><line style="stroke:#181818;stroke-width:0.5;" x1="114" x2="261" y1="263" y2="263"/></g><!--MD5=[e47283816316996cbc2200e9e7ce457e]
class Acceptances--><g id="elem_Acceptances"><rect codeLine="5" fill="#F1F1F1" height="48" id="Acceptances" rx="2.5" ry="2.5" style="stroke:#181818;stroke-width:0.5;" width="125" x="297" y="223"/><ellipse cx="312" cy="239" fill="#ADD1B2" rx="11" ry="11" style="stroke:#181818;stroke-width:1.0;"/><path d="M314.3438,234.6719 C313.4063,234.2344 312.8125,234.0938 311.9375,234.0938 C309.3125,234.0938 307.3125,236.1719 307.3125,238.8906 L307.3125,240.0156 C307.3125,242.5938 309.4219,244.4844 312.3125,244.4844 C313.5313,244.4844 314.6875,244.1875 315.4375,243.6406 C316.0156,243.2344 316.3438,242.7813 316.3438,242.3906 C316.3438,241.9375 315.9531,241.5469 315.4844,241.5469 C315.2656,241.5469 315.0625,241.625 314.875,241.8125 C314.4219,242.2969 314.4219,242.2969 314.2344,242.3906 C313.8125,242.6563 313.125,242.7813 312.3594,242.7813 C310.3125,242.7813 309.0156,241.6875 309.0156,239.9844 L309.0156,238.8906 C309.0156,237.1094 310.2656,235.7969 312,235.7969 C312.5781,235.7969 313.1875,235.9531 313.6563,236.2031 C314.1406,236.4844 314.3125,236.7031 314.4063,237.1094 C314.4688,237.5156 314.5,237.6406 314.6406,237.7656 C314.7813,237.9063 315.0156,238.0156 315.2344,238.0156 C315.5,238.0156 315.7656,237.875 315.9375,237.6563 C316.0469,237.5 316.0781,237.3125 316.0781,236.8906 L316.0781,235.4688 C316.0781,235.0313 316.0625,234.9063 315.9688,234.75 C315.8125,234.4844 315.5313,234.3438 315.2344,234.3438 C314.9375,234.3438 314.7344,234.4375 314.5156,234.75 L314.3438,234.6719 Z " fill="#000000"/><text fill="#000000" font-family="sans-serif" font-size="14" lengthAdjust="spacing" textLength="93" x="326" y="243.8467">Acceptances</text><line style="stroke:#181818;stroke-width:0.5;" x1="298" x2="421" y1="255" y2="255"/><line style="stroke:#181818;stroke-width:0.5;" x1="298" x2="421" y1="263" y2="263"/></g><!--MD5=[af22135d5be6ed11ccd2d02fa51653b3]
class Definition--><g id="elem_Definition"><rect codeLine="6" fill="#F1F1F1" height="48" id="Definition" rx="2.5" ry="2.5" style="stroke:#181818;stroke-width:0.5;" width="104" x="457.5" y="223"/><ellipse cx="472.5" cy="239" fill="#ADD1B2" rx="11" ry="11" style="stroke:#181818;stroke-width:1.0;"/><path d="M474.8438,234.6719 C473.9063,234.2344 473.3125,234.0938 472.4375,234.0938 C469.8125,234.0938 467.8125,236.1719 467.8125,238.8906 L467.8125,240.0156 C467.8125,242.5938 469.9219,244.4844 472.8125,244.4844 C474.0313,244.4844 475.1875,244.1875 475.9375,243.6406 C476.5156,243.2344 476.8438,242.7813 476.8438,242.3906 C476.8438,241.9375 476.4531,241.5469 475.9844,241.5469 C475.7656,241.5469 475.5625,241.625 475.375,241.8125 C474.9219,242.2969 474.9219,242.2969 474.7344,242.3906 C474.3125,242.6563 473.625,242.7813 472.8594,242.7813 C470.8125,242.7813 469.5156,241.6875 469.5156,239.9844 L469.5156,238.8906 C469.5156,237.1094 470.7656,235.7969 472.5,235.7969 C473.0781,235.7969 473.6875,235.9531 474.1563,236.2031 C474.6406,236.4844 474.8125,236.7031 474.9063,237.1094 C474.9688,237.5156 475,237.6406 475.1406,237.7656 C475.2813,237.9063 475.5156,238.0156 475.7344,238.0156 C476,238.0156 476.2656,237.875 476.4375,237.6563 C476.5469,237.5 476.5781,237.3125 476.5781,236.8906 L476.5781,235.4688 C476.5781,235.0313 476.5625,234.9063 476.4688,234.75 C476.3125,234.4844 476.0313,234.3438 475.7344,234.3438 C475.4375,234.3438 475.2344,234.4375 475.0156,234.75 L474.8438,234.6719 Z " fill="#000000"/><text fill="#000000" font-family="sans-serif" font-size="14" lengthAdjust="spacing" textLength="72" x="486.5" y="243.8467">Definition</text><line style="stroke:#181818;stroke-width:0.5;" x1="458.5" x2="560.5" y1="255" y2="255"/><line style="stroke:#181818;stroke-width:0.5;" x1="458.5" x2="560.5" y1="263" y2="263"/></g><!--MD5=[57528f4c716a2f9f06b37d90a80dda88]
class Example--><g id="elem_Example"><rect codeLine="7" fill="#F1F1F1" height="48" id="Example" rx="2.5" ry="2.5" style="stroke:#181818;stroke-width:0.5;" width="94" x="596.5" y="223"/><ellipse cx="611.5" cy="239" fill="#ADD1B2" rx="11" ry="11" style="stroke:#181818;stroke-width:1.0;"/><path d="M613.8438,234.6719 C612.9063,234.2344 612.3125,234.0938 611.4375,234.0938 C608.8125,234.0938 606.8125,236.1719 606.8125,238.8906 L606.8125,240.0156 C606.8125,242.5938 608.9219,244.4844 611.8125,244.4844 C613.0313,244.4844 614.1875,244.1875 614.9375,243.6406 C615.5156,243.2344 615.8438,242.7813 615.8438,242.3906 C615.8438,241.9375 615.4531,241.5469 614.9844,241.5469 C614.7656,241.5469 614.5625,241.625 614.375,241.8125 C613.9219,242.2969 613.9219,242.2969 613.7344,242.3906 C613.3125,242.6563 612.625,242.7813 611.8594,242.7813 C609.8125,242.7813 608.5156,241.6875 608.5156,239.9844 L608.5156,238.8906 C608.5156,237.1094 609.7656,235.7969 611.5,235.7969 C612.0781,235.7969 612.6875,235.9531 613.1563,236.2031 C613.6406,236.4844 613.8125,236.7031 613.9063,237.1094 C613.9688,237.5156 614,237.6406 614.1406,237.7656 C614.2813,237.9063 614.5156,238.0156 614.7344,238.0156 C615,238.0156 615.2656,237.875 615.4375,237.6563 C615.5469,237.5 615.5781,237.3125 615.5781,236.8906 L615.5781,235.4688 C615.5781,235.0313 615.5625,234.9063 615.4688,234.75 C615.3125,234.4844 615.0313,234.3438 614.7344,234.3438 C614.4375,234.3438 614.2344,234.4375 614.0156,234.75 L613.8438,234.6719 Z " fill="#000000"/><text fill="#000000" font-family="sans-serif" font-size="14" lengthAdjust="spacing" textLength="62" x="625.5" y="243.8467">Example</text><line style="stroke:#181818;stroke-width:0.5;" x1="597.5" x2="689.5" y1="255" y2="255"/><line style="stroke:#181818;stroke-width:0.5;" x1="597.5" x2="689.5" y1="263" y2="263"/></g><!--MD5=[340d19d494277849530e82e8245be1c5]
class Synonymous--><g id="elem_Synonymous"><rect codeLine="8" fill="#F1F1F1" height="48" id="Synonymous" rx="2.5" ry="2.5" style="stroke:#181818;stroke-width:0.5;" width="122" x="725.5" y="223"/><ellipse cx="740.5" cy="239" fill="#ADD1B2" rx="11" ry="11" style="stroke:#181818;stroke-width:1.0;"/><path d="M742.8438,234.6719 C741.9063,234.2344 741.3125,234.0938 740.4375,234.0938 C737.8125,234.0938 735.8125,236.1719 735.8125,238.8906 L735.8125,240.0156 C735.8125,242.5938 737.9219,244.4844 740.8125,244.4844 C742.0313,244.4844 743.1875,244.1875 743.9375,243.6406 C744.5156,243.2344 744.8438,242.7813 744.8438,242.3906 C744.8438,241.9375 744.4531,241.5469 743.9844,241.5469 C743.7656,241.5469 743.5625,241.625 743.375,241.8125 C742.9219,242.2969 742.9219,242.2969 742.7344,242.3906 C742.3125,242.6563 741.625,242.7813 740.8594,242.7813 C738.8125,242.7813 737.5156,241.6875 737.5156,239.9844 L737.5156,238.8906 C737.5156,237.1094 738.7656,235.7969 740.5,235.7969 C741.0781,235.7969 741.6875,235.9531 742.1563,236.2031 C742.6406,236.4844 742.8125,236.7031 742.9063,237.1094 C742.9688,237.5156 743,237.6406 743.1406,237.7656 C743.2813,237.9063 743.5156,238.0156 743.7344,238.0156 C744,238.0156 744.2656,237.875 744.4375,237.6563 C744.5469,237.5 744.5781,237.3125 744.5781,236.8906 L744.5781,235.4688 C744.5781,235.0313 744.5625,234.9063 744.4688,234.75 C744.3125,234.4844 744.0313,234.3438 743.7344,234.3438 C743.4375,234.3438 743.2344,234.4375 743.0156,234.75 L742.8438,234.6719 Z " fill="#000000"/><text fill="#000000" font-family="sans-serif" font-size="14" lengthAdjust="spacing" textLength="90" x="754.5" y="243.8467">Synonymous</text><line style="stroke:#181818;stroke-width:0.5;" x1="726.5" x2="846.5" y1="255" y2="255"/><line style="stroke:#181818;stroke-width:0.5;" x1="726.5" x2="846.5" y1="263" y2="263"/></g><!--MD5=[aa4437fe3cdea52f68365ecf5025e25a]
class Observations--><g id="elem_Observations"><rect codeLine="9" fill="#F1F1F1" height="48" id="Observations" rx="2.5" ry="2.5" style="stroke:#181818;stroke-width:0.5;" width="127" x="883" y="223"/><ellipse cx="898" cy="239" fill="#ADD1B2" rx="11" ry="11" style="stroke:#181818;stroke-width:1.0;"/><path d="M900.3438,234.6719 C899.4063,234.2344 898.8125,234.0938 897.9375,234.0938 C895.3125,234.0938 893.3125,236.1719 893.3125,238.8906 L893.3125,240.0156 C893.3125,242.5938 895.4219,244.4844 898.3125,244.4844 C899.5313,244.4844 900.6875,244.1875 901.4375,243.6406 C902.0156,243.2344 902.3438,242.7813 902.3438,242.3906 C902.3438,241.9375 901.9531,241.5469 901.4844,241.5469 C901.2656,241.5469 901.0625,241.625 900.875,241.8125 C900.4219,242.2969 900.4219,242.2969 900.2344,242.3906 C899.8125,242.6563 899.125,242.7813 898.3594,242.7813 C896.3125,242.7813 895.0156,241.6875 895.0156,239.9844 L895.0156,238.8906 C895.0156,237.1094 896.2656,235.7969 898,235.7969 C898.5781,235.7969 899.1875,235.9531 899.6563,236.2031 C900.1406,236.4844 900.3125,236.7031 900.4063,237.1094 C900.4688,237.5156 900.5,237.6406 900.6406,237.7656 C900.7813,237.9063 901.0156,238.0156 901.2344,238.0156 C901.5,238.0156 901.7656,237.875 901.9375,237.6563 C902.0469,237.5 902.0781,237.3125 902.0781,236.8906 L902.0781,235.4688 C902.0781,235.0313 902.0625,234.9063 901.9688,234.75 C901.8125,234.4844 901.5313,234.3438 901.2344,234.3438 C900.9375,234.3438 900.7344,234.4375 900.5156,234.75 L900.3438,234.6719 Z " fill="#000000"/><text fill="#000000" font-family="sans-serif" font-size="14" lengthAdjust="spacing" textLength="95" x="912" y="243.8467">Observations</text><line style="stroke:#181818;stroke-width:0.5;" x1="884" x2="1009" y1="255" y2="255"/><line style="stroke:#181818;stroke-width:0.5;" x1="884" x2="1009" y1="263" y2="263"/></g><!--MD5=[b69ac63b368fee073721a78c85efbdfb]
link Dictionary to Article--><g id="link_Dictionary_Article"><path codeLine="11" d="M509.5,67 C509.5,67 509.5,90.677 509.5,101.364 " fill="none" id="Dictionary-Article" style="stroke:#181818;stroke-width:1.0;"/><polygon fill="#181818" points="509.5,114.678,513.5,105.678,509.5,109.678,505.5,105.678,509.5,114.678" style="stroke:#181818;stroke-width:1.0;"/><line style="stroke:#181818;stroke-width:1.0;" x1="509.5" x2="509.5" y1="109.678" y2="101.678"/><polygon fill="#181818" points="509.5,55,505.5,61,509.5,67,513.5,61,509.5,55" style="stroke:#181818;stroke-width:1.0;"/><text fill="#000000" font-family="sans-serif" font-size="13" lengthAdjust="spacing" textLength="23" x="483.6969" y="104.0045">1..*</text></g><!--MD5=[29abe0cd7beb54cbc3a2c6021a184ce7]
link Article to Entry--><g id="link_Article_Entry"><path codeLine="12" d="M457.5258,146.8142 C457.5258,146.8142 222.132,183.3214 95.5,223 C93.7951,223.5342 92.0708,224.1055 90.3381,224.706 " fill="none" id="Article-Entry" style="stroke:#181818;stroke-width:1.0;"/><polygon fill="#181818" points="78.0313,229.3625,87.8644,229.9186,82.7077,227.593,85.0333,222.4363,78.0313,229.3625" style="stroke:#181818;stroke-width:1.0;"/><line style="stroke:#181818;stroke-width:1.0;" x1="82.7077" x2="90.1901" y1="227.593" y2="224.7619"/><polygon fill="#181818" points="469.411,145.158,462.9163,142.0244,457.5258,146.8142,464.0205,149.9478,469.411,145.158" style="stroke:#181818;stroke-width:1.0;"/></g><!--MD5=[2b800b188f2b894b3a13a8aa3503c907]
link Article to MorpholicalData--><g id="link_Article_MorpholicalData"><path codeLine="13" d="M457.9716,156.963 C457.9716,156.963 329.084,199.3917 270.245,218.7611 " fill="none" id="Article-MorpholicalData" style="stroke:#181818;stroke-width:1.0;"/><polygon fill="#181818" points="257.608,222.921,267.4075,223.9057,262.3572,221.3573,264.9056,216.307,257.608,222.921" style="stroke:#181818;stroke-width:1.0;"/><line style="stroke:#181818;stroke-width:1.0;" x1="262.3572" x2="269.956" y1="221.3573" y2="218.856"/><polygon fill="#181818" points="469.37,153.211,462.4202,151.2875,457.9716,156.963,464.9215,158.8864,469.37,153.211" style="stroke:#181818;stroke-width:1.0;"/></g><!--MD5=[1ce04158d179c9869c9eb6cd8ab73890]
link Article to Acceptances--><g id="link_Article_Acceptances"><path codeLine="14" d="M467.1516,169.9247 C467.1516,169.9247 422.77,201.289 402.875,215.348 " fill="none" id="Article-Acceptances" style="stroke:#181818;stroke-width:1.0;"/><polygon fill="#181818" points="392.243,222.8617,401.9016,220.9349,396.3265,219.9764,397.2851,214.4013,392.243,222.8617" style="stroke:#181818;stroke-width:1.0;"/><line style="stroke:#181818;stroke-width:1.0;" x1="396.3265" x2="402.8595" y1="219.9764" y2="215.3592"/><polygon fill="#181818" points="476.952,163,469.7435,163.1955,467.1516,169.9247,474.36,169.7292,476.952,163" style="stroke:#181818;stroke-width:1.0;"/><text fill="#000000" font-family="sans-serif" font-size="13" lengthAdjust="spacing" textLength="23" x="374.6865" y="211.8383">1..*</text></g><!--MD5=[f97b3edd8c14766802fe6d48a07da4b7]
link Article to Definition--><g id="link_Article_Definition"><path codeLine="15" d="M509.5,175 C509.5,175 509.5,198.6772 509.5,209.3638 " fill="none" id="Article-Definition" style="stroke:#181818;stroke-width:1.0;"/><polygon fill="#181818" points="509.5,222.6784,513.5,213.6784,509.5,217.6784,505.5,213.6784,509.5,222.6784" style="stroke:#181818;stroke-width:1.0;"/><line style="stroke:#181818;stroke-width:1.0;" x1="509.5" x2="509.5" y1="217.6784" y2="209.6785"/><polygon fill="#181818" points="509.5,163,505.5,169,509.5,175,513.5,169,509.5,163" style="stroke:#181818;stroke-width:1.0;"/><text fill="#000000" font-family="sans-serif" font-size="13" lengthAdjust="spacing" textLength="23" x="483.6969" y="212.005">1..*</text></g><!--MD5=[1c5ab659df9115baf953e03282635cc9]
link Article to Example--><g id="link_Article_Example"><path codeLine="16" d="M547.9873,170.445 C547.9873,170.445 586.424,200.8501 603.693,214.5107 " fill="none" id="Article-Example" style="stroke:#181818;stroke-width:1.0;"/><polygon fill="#181818" points="614.018,222.6784,609.4413,213.9575,610.0967,219.5763,604.4779,220.2316,614.018,222.6784" style="stroke:#181818;stroke-width:1.0;"/><line style="stroke:#181818;stroke-width:1.0;" x1="610.0967" x2="603.822" y1="219.5763" y2="214.6131"/><polygon fill="#181818" points="538.576,163,540.8,169.8596,547.9873,170.445,545.7633,163.5854,538.576,163" style="stroke:#181818;stroke-width:1.0;"/><text fill="#000000" font-family="sans-serif" font-size="13" lengthAdjust="spacing" textLength="23" x="581.0286" y="212.005">1..*</text></g><!--MD5=[e12201af875ecbb208c6276dc8869986]
link Article to Synonymous--><g id="link_Article_Synonymous"><path codeLine="17" d="M560.9851,159.7025 C560.9851,159.7025 666.179,199.9566 713.813,218.1849 " fill="none" id="Article-Synonymous" style="stroke:#181818;stroke-width:1.0;"/><polygon fill="#181818" points="726.236,222.9388,719.2598,215.9866,721.5662,221.152,716.4009,223.4584,726.236,222.9388" style="stroke:#181818;stroke-width:1.0;"/><line style="stroke:#181818;stroke-width:1.0;" x1="721.5662" x2="714.095" y1="221.152" y2="218.2926"/><polygon fill="#181818" points="549.778,155.413,553.9517,161.2935,560.9851,159.7025,556.8114,153.8221,549.778,155.413" style="stroke:#181818;stroke-width:1.0;"/><text fill="#000000" font-family="sans-serif" font-size="13" lengthAdjust="spacing" textLength="25" x="692.3679" y="216.1673">1--*</text></g><!--MD5=[6c3b6162c98b6eff11903dc3ce353f71]
link Article to Observations--><g id="link_Article_Observations"><path codeLine="18" d="M561.4147,151.2898 C561.4147,151.2898 758.421,195.3315 865.5,223 C867.092,223.4114 868.701,223.8311 870.322,224.2575 " fill="none" id="Article-Observations" style="stroke:#181818;stroke-width:1.0;"/><polygon fill="#181818" points="882.906,227.6334,875.2499,221.438,878.0768,226.3378,873.1769,229.1647,882.906,227.6334" style="stroke:#181818;stroke-width:1.0;"/><line style="stroke:#181818;stroke-width:1.0;" x1="878.0768" x2="870.35" y1="226.3378" y2="224.265"/><polygon fill="#181818" points="549.694,148.716,554.6964,153.9098,561.4147,151.2898,556.4123,146.096,549.694,148.716" style="stroke:#181818;stroke-width:1.0;"/><text fill="#000000" font-family="sans-serif" font-size="13" lengthAdjust="spacing" textLength="23" x="852.1619" y="221.9365">1..*</text></g><!--MD5=[db467fcbeba5565bfc748efd342c9faf]
@startuml
class Dictionary
class Article
class Entry
class MorpholicalData
class Acceptances
class Definition
class Example
class Synonymous
class Observations

Dictionary *-down-> "1..*" Article
Article *-down-> Entry
Article *-down-> MorpholicalData
Article *-down-> "1..*"Acceptances
Article *-down-> "1..*" Definition
Article *-down-> "1..*" Example
Article *-down-> "1- -*" Synonymous
Article *-down-> "1..*" Observations
@enduml

PlantUML version 1.2022.10beta2(Unknown compile time)
(GPL source distribution)
Java Runtime: Java(TM) SE Runtime Environment
JVM: Java HotSpot(TM) 64-Bit Server VM
Default Encoding: UTF-8
Language: en
Country: US
--></g></svg>